<?xml version="1.0" encoding="utf-8"?>
<!-- Generator: Adobe Illustrator 22.1.0, SVG Export Plug-In . SVG Version: 6.00 Build 0)  -->
<svg version="1.1" id="Ebene_1" xmlns="http://www.w3.org/2000/svg" xmlns:xlink="http://www.w3.org/1999/xlink" x="0px" y="0px"
	 viewBox="0 0 353.4 60.8" style="enable-background:new 0 0 353.4 60.8;" xml:space="preserve">
<style type="text/css">
	.st0{clip-path:url(#SVGID_2_);}
</style>
<g>
	<defs>
		<rect id="SVGID_1_" x="2" y="1.6" width="348.8" height="85.4"/>
	</defs>
	<clipPath id="SVGID_2_">
		<use xlink:href="#SVGID_1_"  style="overflow:visible;"/>
	</clipPath>
	<path class="st0" d="M349.6,56.3c-0.8,0.7-1.9,1.1-3.2,1.1c-1.3,0-2.4-0.4-3.3-1.2c-0.9-0.8-1.3-1.8-1.3-3.1c0-1.3,0.4-2.4,1.3-3.3
		c0.9-0.9,1.9-1.3,3.3-1.3c1.3,0,2.4,0.5,3.2,1.4c0.8,0.9,1.2,2.1,1.2,3.4S350.4,55.5,349.6,56.3 M329.8,24c-1.3-1.3-3-2-5.2-2
		c-1.4,0-2.7,0.4-3.8,1.2c-1.1,0.8-2.1,1.8-3,2.9c-0.8,1.1-1.5,2.2-1.9,3.4c-0.5,1.1-0.7,2-0.8,2.6h3.1c0.9,0,1.8,0,2.7,0
		c0.9,0,1.8,0,2.8-0.1c1,0,2,0,3.2,0c0.8,0,1.5,0,2.1-0.1c0.7,0,1.2-0.2,1.7-0.4c0.4-0.4,0.6-0.8,0.8-1.1c0.2-0.4,0.3-0.9,0.3-1.6
		C331.8,27,331.1,25.4,329.8,24 M338.5,49.5c-0.7,1.4-1.7,2.7-2.9,3.8c-1.2,1.2-2.7,2.1-4.4,2.9c-1.7,0.8-3.6,1.1-5.6,1.1
		c-2.6,0-4.9-0.5-7-1.4c-2.1-1-3.9-2.3-5.4-4s-2.6-3.8-3.4-6.1c-0.8-2.3-1.2-4.8-1.2-7.5c0-2.1,0.4-4.2,1.1-6.3
		c0.8-2.1,1.8-4,3.2-5.6c1.4-1.7,3.1-3,5.1-4c2-1,4.2-1.6,6.6-1.6c2,0,3.8,0.3,5.6,0.8c1.7,0.5,3.3,1.3,4.5,2.3
		c1.3,1,2.3,2.3,3.1,3.9c0.8,1.6,1.3,3.4,1.4,5.5H315c0,0.4,0,0.9-0.1,1.4c-0.1,0.5-0.1,1.1-0.1,1.6c0,2.1,0.3,4.2,0.9,6.1
		c0.6,1.9,1.5,3.7,2.6,5.1c1.2,1.5,2.6,2.7,4.4,3.5c1.8,0.9,3.8,1.3,6.1,1.3c2.5,0,4.7-0.6,6.6-1.9c1.9-1.3,3.1-2.9,3.7-4.7l0.6,0.2
		C339.7,46.9,339.2,48.1,338.5,49.5 M291.9,57.3v-0.8c0.6-0.1,1.2-0.1,1.8-0.2c0.6-0.1,1.1-0.2,1.6-0.4c0.5-0.2,0.9-0.4,1.2-0.7
		c0.3-0.3,0.5-0.7,0.5-1.1v-26c0-0.4,0-0.8-0.1-1.1c-0.1-0.3-0.3-0.6-0.6-0.8c-0.5-0.3-1-0.6-1.6-0.9c-0.6-0.3-1.3-0.6-2-0.8v-0.5
		l10.2-3.3h0.5v33.8c0.1,0.5,0.3,0.9,0.6,1.1c0.3,0.2,0.7,0.4,1.2,0.5c0.5,0.1,0.9,0.2,1.5,0.2c0.5,0,1,0.1,1.6,0.2v0.8H291.9z
		 M302.7,11.7c-0.8,0.8-1.8,1.2-2.9,1.2c-1.1,0-2.1-0.4-2.9-1.2c-0.8-0.8-1.2-1.8-1.2-2.9c0-1.2,0.4-2.1,1.2-2.9
		c0.8-0.8,1.8-1.1,2.9-1.1c1.2,0,2.1,0.4,2.9,1.1c0.8,0.8,1.2,1.7,1.2,2.9C303.9,9.9,303.5,10.9,302.7,11.7 M287.9,20.3
		c-0.7-2.4-1.6-4.7-3-6.8s-2.9-4-4.7-5.5c-1.8-1.6-3.8-2.8-6.1-3.7c-2.2-0.9-4.6-1.4-7.2-1.4c-3.5,0-6.6,0.8-9.3,2.3
		c-2.7,1.6-5,3.6-6.9,6.2c-1.8,2.6-3.3,5.5-4.2,8.7c-1,3.3-1.5,6.6-1.5,10c0,3.6,0.5,7,1.6,10.2c1,3.2,2.5,5.9,4.4,8.3
		c1.9,2.3,4.2,4.2,7,5.6c2.7,1.4,5.8,2,9.1,2c2.6,0,5.1-0.5,7.4-1.4c2.3-1,4.3-2.2,6.1-3.8c1.8-1.6,3.3-3.4,4.5-5.4
		c1.2-2,2.1-4.2,2.5-6.3h0.9l-0.2,16.7h-0.9c-0.6-0.9-1.2-1.6-1.9-2.3c-0.7-0.7-1.1-1.1-1.4-1.1c-0.1,0-0.6,0.3-1.4,0.8
		c-0.8,0.5-2,1.1-3.5,1.7c-1.5,0.6-3.4,1.2-5.5,1.7c-2.2,0.5-4.7,0.7-7.5,0.7c-4.7,0-8.9-0.7-12.7-2c-3.8-1.3-7-3.2-9.7-5.7
		c-2.6-2.4-4.7-5.4-6.1-8.8c-1.4-3.4-2.1-7.2-2.1-11.2c0-0.9,0.1-1.9,0.2-3.1c0.1-1.2,0.4-2.4,0.7-3.7c0.3-1.3,0.8-2.7,1.4-4.1
		c0.6-1.4,1.3-2.9,2.2-4.4c1.1-1.7,2.4-3.4,3.9-4.9c1.6-1.6,3.4-2.9,5.5-4.1c2.1-1.2,4.5-2.1,7.2-2.8c2.7-0.7,5.7-1.1,9-1.1
		c3,0,5.7,0.3,7.9,0.8c2.3,0.6,4.2,1.2,5.7,1.8c1.5,0.7,2.7,1.3,3.5,1.8c0.8,0.6,1.3,0.8,1.4,0.8c0.1,0,0.3-0.1,0.6-0.3
		c0.3-0.2,0.6-0.5,0.9-0.8c0.3-0.3,0.7-0.7,1-1.1c0.4-0.4,0.7-0.9,1-1.3h0.8v17L287.9,20.3z M200.1,45.4c-0.5-0.8-1.1-1.5-1.6-2.2
		c-0.6-0.7-1.1-1.5-1.8-2.2c-0.6-0.8-1.4-1.6-2.1-2.6c-0.4-0.5-1-1.1-1.6-1.8c-0.6-0.7-1.3-1.3-2-1.9c-0.7-0.6-1.3-1.2-2-1.8
		c-0.6-0.6-1.2-1.1-1.6-1.5c-0.7,0.6-1.5,1.3-2.3,2.2c-0.8,0.8-1.5,1.8-2.2,2.8c-0.7,1-1.2,2.1-1.6,3.3c-0.4,1.2-0.6,2.5-0.6,3.8
		c0,1.3,0.2,2.6,0.7,3.8c0.4,1.2,1.1,2.2,1.9,3.1c0.8,0.9,1.8,1.6,3,2.1c1.1,0.5,2.4,0.8,3.8,0.8c1.4,0,2.6-0.1,3.6-0.3
		c1.1-0.2,2-0.5,2.9-1c0.9-0.4,1.8-0.9,2.6-1.6c0.8-0.6,1.7-1.4,2.6-2.2C201.2,47.1,200.7,46.2,200.1,45.4 M195.5,15.7
		c-0.3-1-0.7-1.9-1.2-2.6c-0.5-0.8-1.2-1.4-1.9-1.9c-0.7-0.5-1.6-0.7-2.4-0.7c-0.8,0-1.5,0.2-2,0.5c-0.6,0.4-1,0.8-1.4,1.3
		c-0.4,0.5-0.6,1.1-0.8,1.7c-0.2,0.6-0.3,1.2-0.3,1.7c0,1.4,0.1,2.5,0.4,3.3c0.3,0.8,0.7,1.7,1.4,2.6c0.7,1.1,1.6,2,2.4,2.7
		c0.9,0.8,1.9,1.7,3.1,2.7c1.1-1.2,2-2.4,2.5-3.7c0.5-1.3,0.8-2.8,0.8-4.7C195.9,17.7,195.8,16.7,195.5,15.7 M222.2,27.6
		c-1.8,1.2-3.6,2.6-5.2,4.3c-1.7,1.7-3.3,3.6-4.9,5.6c-1.6,2-3.3,4.1-5,6.1c0.6,0.8,1.3,1.7,2.1,2.7c0.8,1,1.8,2.2,3,3.4
		c1.1,1.2,2.3,2.2,3.5,2.9c1.2,0.7,2.6,1.1,4.3,1.1c0.9,0,1.7-0.2,2.5-0.5c0.8-0.4,1.5-0.8,2.1-1.3c0.7-0.5,1.3-1.1,1.8-1.7
		c0.5-0.6,0.9-1.2,1.3-1.7l0.6,0.3c-0.3,0.9-0.9,1.9-1.7,3c-0.8,1.1-1.8,2.2-2.9,3.1c-1.1,1-2.4,1.8-3.9,2.4
		c-1.4,0.6-2.9,0.9-4.5,0.9c-1.5,0-2.8-0.3-4-0.8c-1.2-0.5-2.4-1.2-3.5-2.1c-1.1-0.9-2.1-1.9-3-3c-0.9-1.1-1.8-2.3-2.5-3.5
		c-0.6,0.8-1.4,1.8-2.4,2.8c-1,1.1-2.2,2-3.5,3c-1.3,0.9-2.8,1.7-4.5,2.3c-1.6,0.6-3.3,0.9-5.1,0.9c-2,0-3.9-0.3-5.5-0.9
		c-1.6-0.6-3-1.4-4.1-2.5c-1.1-1.1-1.9-2.3-2.5-3.8c-0.6-1.5-0.9-3-0.9-4.6c0-1.8,0.4-3.6,1.2-5.1c0.8-1.6,1.8-3,3-4.2
		c1.3-1.3,2.6-2.4,4.2-3.4c1.5-1,3.1-1.9,4.6-2.6c-1-1-1.9-1.9-2.7-2.7c-0.8-0.8-1.6-1.7-2.2-2.5c-0.6-0.9-1.1-1.8-1.5-2.9
		c-0.4-1.1-0.6-2.3-0.6-3.8c0-1.5,0.3-2.8,1-4c0.7-1.2,1.6-2.2,2.6-3.1c1.1-0.9,2.3-1.5,3.6-2c1.3-0.5,2.7-0.7,4.1-0.7
		c1.2,0,2.4,0.2,3.5,0.5c1.1,0.4,2.2,0.9,3.1,1.6c0.9,0.7,1.6,1.6,2.2,2.6c0.6,1.1,0.9,2.3,0.9,3.7c0,1.4-0.3,2.7-0.9,3.8
		c-0.6,1.1-1.3,2.1-2.1,3c-0.8,0.9-1.6,1.6-2.5,2.1c-0.8,0.6-1.5,1-1.9,1.3c1.4,1.1,2.6,2.2,3.8,3.3c1.1,1.2,2.3,2.4,3.4,3.6
		c1.2,1.4,2.4,2.8,3.4,4.3c1,1.5,1.9,2.8,2.7,4c1-1.3,2-2.6,2.9-3.8c0.9-1.3,1.7-2.5,2.4-3.6c0.7-1.1,1.2-2.2,1.6-3.1
		c0.4-0.9,0.6-1.7,0.6-2.3c0-1-0.3-1.7-0.8-2.2c-0.5-0.5-1.2-0.9-2-1.2c-0.8-0.3-1.8-0.4-2.8-0.5c-1-0.1-2-0.1-3-0.2v-0.8l23-0.5
		v0.8C226.1,25.6,224,26.4,222.2,27.6 M159.2,51.1c-0.6,1.3-1.5,2.4-2.5,3.4c-1.1,1-2.4,1.7-4,2.2c-1.6,0.5-3.3,0.7-5.3,0.7
		c-0.4,0-0.9,0-1.6,0c-0.7,0-1.4-0.1-2.2-0.2c-0.8-0.1-1.5-0.3-2.3-0.5c-0.8-0.3-1.6-0.6-2.3-0.9v-8.9h0.7c0.4,1.2,0.9,2.4,1.6,3.6
		c0.6,1.2,1.3,2.2,2.1,3.1c0.8,0.9,1.7,1.6,2.6,2.2c1,0.6,2,0.8,3.1,0.8c1,0,1.8-0.2,2.5-0.6c0.7-0.4,1.3-0.9,1.8-1.5
		c0.5-0.6,0.8-1.3,1.1-2.2c0.3-0.8,0.4-1.7,0.4-2.6c0-2.5-0.8-4.4-2.4-5.7c-1.2-1-2.3-1.9-3.6-2.7c-1.2-0.8-2.4-1.8-3.7-2.8
		c-1.3-1.1-2.5-2.3-3.6-3.6c-1.1-1.3-1.6-2.9-1.6-4.8c0-1.5,0.3-2.7,1-3.6c0.7-0.9,1.5-1.9,2.6-2.9c0.9-0.8,1.6-1.4,2.2-1.9
		c0.6-0.5,1.2-1,1.6-1.7c0.4-0.7,0.8-1.5,1-2.6c0.2-1.1,0.3-2.6,0.3-4.6c0-2.6-0.7-4.7-2-6.2c-1.3-1.6-3.2-2.5-5.6-2.8
		c-0.3,0-0.9,0.1-1.7,0.2c-0.8,0.1-1.6,0.5-2.5,1.2c-0.9,0.7-1.7,1.6-2.4,3c-0.8,1.3-1.2,3.2-1.4,5.5c-0.1,1-0.1,1.9-0.2,2.5
		c-0.1,0.7-0.1,1.3-0.2,1.9c-0.1,0.6-0.1,1.1-0.1,1.7v2v32.9c0,0.7,0.5,1.2,1.4,1.5c0.9,0.4,1.9,0.6,2.8,0.7v0.8h-16.3v-0.8
		c0.6-0.1,1.2-0.1,1.9-0.3c0.7-0.1,1.3-0.3,1.9-0.5c0.6-0.2,1.1-0.4,1.4-0.7c0.4-0.3,0.6-0.6,0.6-1V24.8h-5.5V24l5.5-3.1
		c0-1.8,0.1-3.5,0.2-4.9c0.1-1.5,0.4-2.8,0.9-3.9c0.6-1.5,1.4-2.8,2.5-4c1-1.2,2.2-2.3,3.6-3.1c1.3-0.9,2.8-1.5,4.3-2
		c1.5-0.5,3.1-0.7,4.6-0.7c2.3,0,4.1,0.3,5.5,0.9c1.4,0.6,2.5,1.4,3.3,2.3c0.8,0.9,1.3,1.9,1.6,3c0.3,1.1,0.4,2,0.4,2.8
		c0,1.5-0.2,2.8-0.6,3.8c-0.4,1-0.9,1.9-1.5,2.7c-0.6,0.8-1.2,1.4-1.9,2c-0.7,0.6-1.3,1.2-1.9,1.9c-0.6,0.6-1.1,1.4-1.5,2.2
		c-0.4,0.8-0.6,1.8-0.6,3c0,1.5,0.4,2.8,1.1,3.7c0.7,1,1.5,1.8,2.4,2.5c1.1,0.9,2,1.6,2.8,2.2c0.8,0.6,1.8,1.3,2.9,2.2
		c1.7,1.3,3,2.6,3.9,4c0.9,1.3,1.4,3.2,1.4,5.6C160.1,48.4,159.8,49.8,159.2,51.1 M113.6,33.1c-0.4-2-1-3.8-1.9-5.5
		c-0.9-1.7-2-3-3.4-4.1c-1.4-1.1-3.2-1.6-5.2-1.6c-1.7,0-3.2,0.5-4.5,1.5c-1.3,1-2.4,2.3-3.4,4c-0.9,1.6-1.6,3.5-2.1,5.5
		c-0.5,2-0.7,4.1-0.7,6.2c0,2.3,0.2,4.5,0.6,6.6c0.4,2.1,1.1,3.9,2,5.5c0.9,1.6,2.1,2.9,3.5,3.8c1.4,0.9,3.1,1.4,5.1,1.4
		c2,0,3.6-0.6,5-1.8c1.3-1.2,2.4-2.7,3.3-4.5c0.8-1.8,1.4-3.7,1.8-5.8c0.4-2.1,0.6-4,0.6-5.8C114.2,36.9,114,35.1,113.6,33.1
		 M119.8,46c-1,2.3-2.2,4.3-3.9,6c-1.6,1.7-3.5,3.1-5.6,4c-2.1,1-4.4,1.4-6.8,1.4c-2,0-4-0.4-6.1-1.1c-2.1-0.7-4.1-1.8-5.9-3.4
		c-1.8-1.5-3.3-3.5-4.4-5.9c-1.1-2.4-1.7-5.2-1.7-8.4c0-2.3,0.4-4.6,1.3-6.7c0.9-2.2,2.1-4.1,3.7-5.8c1.6-1.7,3.5-3,5.8-4
		c2.2-1,4.7-1.5,7.5-1.5c2,0,4.1,0.4,6.1,1.1c2.1,0.8,3.9,1.9,5.6,3.4c1.7,1.5,3.1,3.4,4.2,5.6c1.1,2.2,1.6,4.9,1.6,7.9
		C121.2,41.3,120.7,43.7,119.8,46 M85.7,27.5c-0.7,0.7-1.4,1.1-2.3,1.1c-0.8,0-1.5-0.1-1.9-0.4c-0.5-0.3-0.9-0.6-1.2-0.9
		c-0.4-0.4-0.7-0.7-1.1-0.9c-0.4-0.3-1-0.4-1.7-0.4c-0.6,0-1.2,0.2-1.8,0.6c-0.6,0.4-1.1,1-1.6,1.6c-0.5,0.7-1,1.4-1.4,2.2
		c-0.4,0.8-0.8,1.6-1.1,2.4v21.8c0.2,0.5,0.5,0.8,1,1.1c0.5,0.3,1.1,0.4,1.7,0.5c0.6,0.1,1.3,0.2,2,0.2c0.7,0,1.3,0.1,1.8,0.2v0.8
		h-17v-0.8c1.2-0.1,2.2-0.3,3-0.7c0.8-0.4,1.2-0.9,1.2-1.7V28.5c0-0.4,0-0.7-0.1-0.9c-0.1-0.2-0.3-0.4-0.6-0.7
		c-0.5-0.3-1-0.6-1.6-0.9c-0.6-0.4-1.2-0.7-1.8-0.9v-0.5l9.9-3.9h0.5l-0.2,10.5h0.2c0.3-0.6,0.7-1.5,1.2-2.7
		c0.6-1.2,1.3-2.3,2.1-3.5c0.9-1.2,1.9-2.2,3.1-3.1c1.2-0.9,2.6-1.3,4.2-1.3c1.3,0,2.3,0.4,3.2,1.1c0.9,0.8,1.3,1.7,1.3,2.9
		C86.7,25.8,86.3,26.8,85.7,27.5 M57,32.7c-1,0.3-1.7,0.8-2.2,1.6c-0.4,0.6-0.6,1.4-0.6,2.6c-0.1,1.2-0.1,2.3-0.1,3.5v11.1
		c-0.4,0.3-1.2,0.8-2.6,1.5c-1.4,0.7-3.1,1.4-5.1,2.2c-2,0.7-4.2,1.4-6.6,1.9c-2.4,0.5-4.8,0.8-7.3,0.8c-4.8,0-9.1-0.6-12.9-1.9
		c-3.8-1.2-7-3.1-9.6-5.5c-2.6-2.4-4.6-5.3-6-8.8C2.7,38.1,2,34.2,2,30c0-1.3,0.1-2.7,0.4-4.4c0.3-1.6,0.7-3.4,1.3-5.2
		c0.6-1.8,1.5-3.7,2.6-5.5c1.1-1.9,2.6-3.6,4.3-5.3c2.4-2.4,5.4-4.3,8.9-5.7c3.5-1.4,7.8-2.2,12.9-2.2c3,0,5.7,0.3,8,0.8
		c2.3,0.5,4.3,1.1,5.9,1.7C47.9,4.9,49.1,5.5,50,6c0.9,0.5,1.3,0.8,1.4,0.8c0.1,0,0.4-0.3,0.8-0.9c0.5-0.6,1-1.3,1.7-2.2h0.7v16.5
		h-0.9c-0.6-2.3-1.4-4.4-2.5-6.4c-1.1-2-2.3-3.7-3.6-5C46,7,44,5.7,41.4,4.6C38.9,3.5,36.1,3,33,3c-3.3,0-6.3,0.7-9,2.2
		c-2.7,1.5-4.9,3.5-6.8,6c-1.9,2.5-3.3,5.4-4.3,8.6c-1,3.3-1.5,6.7-1.5,10.3c0,3.9,0.5,7.5,1.4,10.8c1,3.3,2.3,6,4.2,8.4
		c1.8,2.3,4,4.1,6.7,5.4c2.6,1.3,5.6,1.9,9,1.9c2.4,0,4.7-0.4,6.8-1.2c2.1-0.8,3.7-2.2,5-4c0.4-0.7,0.7-1.8,0.9-3.5
		c0.2-1.7,0.3-3.4,0.3-5.1c0-1.8-0.1-3.4-0.3-4.8c-0.2-1.4-0.7-2.6-1.6-3.5c-1.2-1.3-3.2-2.1-6.1-2.3v-0.8h22.2v0.8
		C58.9,32.2,58,32.4,57,32.7"/>
</g>
</svg>
